<svg width="20" height="20" viewBox="0 0 20 20" fill="none" xmlns="http://www.w3.org/2000/svg">
<path d="M13.9667 2.02654L5.70022 5.6902L9.5 7.37432L17.7664 3.71057L13.9667 2.02654ZM4.46633 5.14336L12.7328 1.4797L9.90519 0.226637C9.77759 0.170085 9.63957 0.140869 9.5 0.140869C9.36043 0.140869 9.22241 0.170085 9.09481 0.226637L1.23387 3.71072L4.46633 5.14336ZM9.00003 8.24648L0.5 4.47914V14.3138C0.500028 14.5074 0.55625 14.6968 0.661841 14.8591C0.767432 15.0213 0.917853 15.1494 1.09484 15.2279L8.99998 18.7314L9.00003 8.24648ZM10 15.0001V18.7316L11.0713 18.2567C10.3745 17.314 9.99889 16.1724 10 15.0001Z" fill="#FF0000"/>
<path d="M15.5 9.50163C16.5657 9.50073 17.6085 9.81139 18.5 10.3954V4.48071L10 8.24806V15.0017C10.0016 13.5435 10.5816 12.1455 11.6127 11.1144C12.6438 10.0833 14.0418 9.50328 15.5 9.50163Z" fill="#FF0000"/>
<path d="M15.5 10.5C14.61 10.5 13.74 10.7639 12.9999 11.2584C12.2599 11.7529 11.6831 12.4557 11.3425 13.2779C11.0019 14.1002 10.9128 15.005 11.0865 15.8779C11.2601 16.7508 11.6887 17.5526 12.318 18.182C12.9474 18.8113 13.7492 19.2399 14.6221 19.4135C15.495 19.5872 16.3998 19.4981 17.2221 19.1575C18.0443 18.8169 18.7471 18.2401 19.2416 17.5001C19.7361 16.76 20 15.89 20 15C20 13.8065 19.5259 12.6619 18.682 11.818C17.8381 10.9741 16.6935 10.5 15.5 10.5ZM17.8535 14.3535L15.3535 16.8535C15.3071 16.8999 15.252 16.9368 15.1913 16.9619C15.1307 16.987 15.0657 17 15 17C14.9344 17 14.8693 16.987 14.8087 16.9619C14.748 16.9368 14.6929 16.8999 14.6465 16.8535L13.3965 15.6035C13.3045 15.5093 13.2533 15.3828 13.2541 15.2512C13.2549 15.1196 13.3075 14.9936 13.4005 14.9005C13.4936 14.8074 13.6196 14.7548 13.7512 14.7541C13.8828 14.7533 14.0094 14.8045 14.1035 14.8965L15 15.7928L17.1465 13.6464C17.1927 13.5991 17.2479 13.5615 17.3088 13.5356C17.3696 13.5098 17.435 13.4963 17.5012 13.4959C17.5673 13.4955 17.6329 13.5083 17.6941 13.5334C17.7552 13.5585 17.8108 13.5956 17.8576 13.6423C17.9044 13.6891 17.9414 13.7447 17.9665 13.8059C17.9917 13.8671 18.0044 13.9326 18.004 13.9988C18.0036 14.0649 17.9901 14.1303 17.9643 14.1912C17.9385 14.2521 17.9008 14.3072 17.8535 14.3535V14.3535Z" fill="#FF0000"/>
</svg>
