<svg width="20" height="22" viewBox="0 0 20 22" fill="none" xmlns="http://www.w3.org/2000/svg">
<path d="M18.5964 15.5036C17.9126 14.9267 17.3631 14.2073 16.9864 13.3958C16.6097 12.5843 16.4149 11.7003 16.4157 10.8057V8.25C16.4157 5.02425 14.0195 2.354 10.9157 1.90667V0.916667C10.9157 0.673552 10.8191 0.440394 10.6472 0.268485C10.4753 0.0965771 10.2421 0 9.99901 0C9.7559 0 9.52274 0.0965771 9.35083 0.268485C9.17892 0.440394 9.08235 0.673552 9.08235 0.916667V1.90667C5.9776 2.354 3.58235 5.02425 3.58235 8.25V10.8057C3.5827 11.7021 3.38694 12.5878 3.0088 13.4007C2.63066 14.2135 2.07928 14.9337 1.39335 15.5109C1.14544 15.7246 0.968749 16.009 0.886929 16.3259C0.805109 16.6428 0.822069 16.9771 0.935536 17.2841C1.049 17.5911 1.25356 17.8561 1.52182 18.0436C1.79007 18.2311 2.10922 18.3322 2.43651 18.3333H17.5615C18.4461 18.3333 19.1657 17.6138 19.1657 16.7292C19.1657 16.2598 18.9613 15.8162 18.5964 15.5036ZM9.99901 22C10.791 21.9989 11.5585 21.7248 12.1719 21.2239C12.7854 20.7229 13.2074 20.0258 13.3668 19.25H6.63118C6.7906 20.0258 7.21261 20.7229 7.82609 21.2239C8.43957 21.7248 9.207 21.9989 9.99901 22Z" fill="#36454F"/>
</svg>
