<svg width="18" height="20" viewBox="0 0 18 20" fill="none" xmlns="http://www.w3.org/2000/svg">
<path d="M13.8902 9.48856C11.9987 9.48856 10.468 11.0192 10.468 12.9108C10.468 14.8023 11.9987 16.333 13.8902 16.333C15.7787 16.333 17.3124 14.8023 17.3124 12.9108C17.3124 11.0192 15.7787 9.48856 13.8902 9.48856ZM13.8902 12.5997C14.5435 12.5997 15.0724 13.1286 15.0724 13.7819C15.0724 14.3263 14.7022 14.7806 14.2013 14.9175V15.0886C14.2013 15.2597 14.0613 15.3997 13.8902 15.3997C13.7191 15.3997 13.5791 15.2597 13.5791 15.0886V14.9175C13.0782 14.7806 12.708 14.3263 12.708 13.7819C12.708 13.6108 12.848 13.4708 13.0191 13.4708C13.1902 13.4708 13.3302 13.6108 13.3302 13.7819C13.3302 14.0899 13.5822 14.3419 13.8902 14.3419C14.1982 14.3419 14.4502 14.0899 14.4502 13.7819C14.4502 13.4739 14.1982 13.2219 13.8902 13.2219C13.2369 13.2219 12.708 12.693 12.708 12.0397C12.708 11.4952 13.0782 11.041 13.5791 10.9041V10.733C13.5791 10.5619 13.7191 10.4219 13.8902 10.4219C14.0613 10.4219 14.2013 10.5619 14.2013 10.733V10.9041C14.7022 11.041 15.0724 11.4952 15.0724 12.0397C15.0724 12.2108 14.9324 12.3508 14.7613 12.3508C14.5902 12.3508 14.4502 12.2108 14.4502 12.0397C14.4502 11.7317 14.1982 11.4797 13.8902 11.4797C13.5822 11.4797 13.3302 11.7317 13.3302 12.0397C13.3302 12.3477 13.5822 12.5997 13.8902 12.5997ZM13.268 16.9023V17.2663C13.268 17.9539 12.7111 18.5108 12.0235 18.5108H2.06799V19.133C2.06799 19.4752 2.34799 19.7552 2.69022 19.7552H13.8902C14.2324 19.7552 14.5124 19.4752 14.5124 19.133V16.9023C14.3102 16.9335 14.1018 16.9552 13.8902 16.9552C13.6787 16.9552 13.4702 16.9335 13.268 16.9023ZM14.5124 8.91923V2.95523C14.5124 2.61301 14.2324 2.33301 13.8902 2.33301H13.268V8.91923C13.4702 8.88812 13.6787 8.86634 13.8902 8.86634C14.1018 8.86634 14.3102 8.88812 14.5124 8.91923ZM2.46933 4.42056C2.53155 4.48279 2.60933 4.51079 2.69022 4.51079C2.7711 4.51079 2.84888 4.47967 2.9111 4.42056L3.84444 3.48723C3.87324 3.45843 3.89609 3.42423 3.91168 3.3866C3.92727 3.34897 3.93529 3.30863 3.93529 3.2679C3.93529 3.22716 3.92727 3.18683 3.91168 3.14919C3.89609 3.11156 3.87324 3.07737 3.84444 3.04856C3.81563 3.01976 3.78144 2.99691 3.74381 2.98132C3.70617 2.96574 3.66584 2.95771 3.6251 2.95771C3.58437 2.95771 3.54404 2.96574 3.5064 2.98132C3.46877 2.99691 3.43457 3.01976 3.40577 3.04856L2.69333 3.76101L2.6031 3.67079C2.5743 3.64198 2.54011 3.61913 2.50247 3.60355C2.46484 3.58796 2.4245 3.57993 2.38377 3.57993C2.34304 3.57993 2.3027 3.58796 2.26507 3.60355C2.22744 3.61913 2.19324 3.64198 2.16444 3.67079C2.13563 3.69959 2.11279 3.73378 2.0972 3.77142C2.08161 3.80905 2.07359 3.84939 2.07359 3.89012C2.07359 3.93085 2.08161 3.97119 2.0972 4.00882C2.11279 4.04645 2.13563 4.08065 2.16444 4.10945L2.46933 4.42056ZM2.46933 9.08723C2.53155 9.14945 2.60933 9.17745 2.69022 9.17745C2.7711 9.17745 2.84888 9.14634 2.9111 9.08723L3.84444 8.1539C3.87324 8.12509 3.89609 8.0909 3.91168 8.05327C3.92727 8.01563 3.93529 7.9753 3.93529 7.93456C3.93529 7.89383 3.92727 7.85349 3.91168 7.81586C3.89609 7.77823 3.87324 7.74403 3.84444 7.71523C3.81563 7.68643 3.78144 7.66358 3.74381 7.64799C3.70617 7.6324 3.66584 7.62438 3.6251 7.62438C3.58437 7.62438 3.54404 7.6324 3.5064 7.64799C3.46877 7.66358 3.43457 7.68643 3.40577 7.71523L2.69333 8.42767L2.6031 8.33745C2.5743 8.30865 2.54011 8.2858 2.50247 8.27021C2.46484 8.25462 2.4245 8.2466 2.38377 8.2466C2.34304 8.2466 2.3027 8.25462 2.26507 8.27021C2.22744 8.2858 2.19324 8.30865 2.16444 8.33745C2.13563 8.36626 2.11279 8.40045 2.0972 8.43808C2.08161 8.47572 2.07359 8.51605 2.07359 8.55679C2.07359 8.59752 2.08161 8.63786 2.0972 8.67549C2.11279 8.71312 2.13563 8.74732 2.16444 8.77612L2.46933 9.08723ZM2.46933 13.7539C2.53155 13.8161 2.60933 13.8441 2.69022 13.8441C2.7711 13.8441 2.84888 13.813 2.9111 13.7539L3.84444 12.8206C3.87324 12.7918 3.89609 12.7576 3.91168 12.7199C3.92727 12.6823 3.93529 12.642 3.93529 12.6012C3.93529 12.5605 3.92727 12.5202 3.91168 12.4825C3.89609 12.4449 3.87324 12.4107 3.84444 12.3819C3.81563 12.3531 3.78144 12.3302 3.74381 12.3147C3.70617 12.2991 3.66584 12.291 3.6251 12.291C3.58437 12.291 3.54404 12.2991 3.5064 12.3147C3.46877 12.3302 3.43457 12.3531 3.40577 12.3819L2.69333 13.0943L2.6031 13.0041C2.5743 12.9753 2.54011 12.9525 2.50247 12.9369C2.46484 12.9213 2.4245 12.9133 2.38377 12.9133C2.34304 12.9133 2.3027 12.9213 2.26507 12.9369C2.22744 12.9525 2.19324 12.9753 2.16444 13.0041C2.13563 13.0329 2.11279 13.0671 2.0972 13.1047C2.08161 13.1424 2.07359 13.1827 2.07359 13.2235C2.07359 13.2642 2.08161 13.3045 2.0972 13.3422C2.11279 13.3798 2.13563 13.414 2.16444 13.4428L2.46933 13.7539Z" fill="#727272"/>
<path d="M12.6454 17.2658V16.7556C11.0214 16.2298 9.84537 14.7054 9.84537 12.9103C9.84537 11.1152 11.0214 9.59071 12.6454 9.06493V1.08804C12.6454 0.74582 12.3654 0.46582 12.0231 0.46582H0.82315C0.480928 0.46582 0.200928 0.74582 0.200928 1.08804V17.2658C0.200928 17.608 0.480928 17.888 0.82315 17.888H12.0231C12.3654 17.888 12.6454 17.608 12.6454 17.2658ZM5.80093 3.57693H11.4009C11.572 3.57693 11.712 3.71693 11.712 3.88804C11.712 4.05915 11.572 4.19915 11.4009 4.19915H5.80093C5.62982 4.19915 5.48982 4.05915 5.48982 3.88804C5.48982 3.71693 5.62982 3.57693 5.80093 3.57693ZM5.80093 4.82138H9.53426C9.70537 4.82138 9.84537 4.96138 9.84537 5.13249C9.84537 5.3036 9.70537 5.4436 9.53426 5.4436H5.80093C5.62982 5.4436 5.48982 5.3036 5.48982 5.13249C5.48982 4.96138 5.62982 4.82138 5.80093 4.82138ZM5.80093 8.2436H11.4009C11.572 8.2436 11.712 8.3836 11.712 8.55471C11.712 8.72582 11.572 8.86582 11.4009 8.86582H5.80093C5.62982 8.86582 5.48982 8.72582 5.48982 8.55471C5.48982 8.3836 5.62982 8.2436 5.80093 8.2436ZM4.55648 14.7769H1.44537V11.6658H4.55648V14.7769ZM4.55648 10.1103H1.44537V6.99915H4.55648V10.1103ZM4.55648 5.4436H1.44537V2.33249H4.55648V5.4436ZM7.9787 14.7769H5.80093C5.62982 14.7769 5.48982 14.6369 5.48982 14.4658C5.48982 14.2947 5.62982 14.1547 5.80093 14.1547H7.9787C8.14982 14.1547 8.28982 14.2947 8.28982 14.4658C8.28982 14.6369 8.14982 14.7769 7.9787 14.7769ZM8.91204 13.5325H5.80093C5.62982 13.5325 5.48982 13.3925 5.48982 13.2214C5.48982 13.0503 5.62982 12.9103 5.80093 12.9103H8.91204C9.08315 12.9103 9.22315 13.0503 9.22315 13.2214C9.22315 13.3925 9.08315 13.5325 8.91204 13.5325ZM9.53426 10.1103H5.80093C5.62982 10.1103 5.48982 9.97027 5.48982 9.79915C5.48982 9.62804 5.62982 9.48804 5.80093 9.48804H9.53426C9.70537 9.48804 9.84537 9.62804 9.84537 9.79915C9.84537 9.97027 9.70537 10.1103 9.53426 10.1103Z" fill="#727272"/>
</svg>
