<svg width="23" height="38" viewBox="0 0 23 38" fill="none" xmlns="http://www.w3.org/2000/svg">
<path fill-rule="evenodd"  clip-rule="evenodd" d="M14.3463 17.0541L11.7505 15.5554L6.99636 18.3003L11.7505 21.0451L16.5047 18.3003L14.3463 17.0541ZM22.574 23.2626H17.821V18.3003H17.8199C17.8186 18.1413 17.7381 18.0013 17.6012 17.9209L11.9746 14.6723C11.9076 14.6324 11.8311 14.6111 11.7531 14.6107C11.6751 14.6103 11.5984 14.6307 11.5309 14.6698L5.92783 17.9047C5.85357 17.9408 5.79095 17.997 5.74714 18.0669C5.70333 18.1368 5.68011 18.2177 5.68013 18.3003V23.2626H0.928101L0.927734 18.4185C1.00171 16.647 1.84048 15.219 3.14434 14.1364C4.63708 12.8969 6.73877 12.101 9.01653 11.7497C9.84548 12.1424 10.7723 12.3622 11.7505 12.3622C12.7287 12.3622 13.6555 12.1425 14.4845 11.7497C16.7623 12.101 18.864 12.8969 20.3568 14.1364C21.6646 15.2224 22.5047 16.6558 22.5741 18.4349V23.2626L22.574 23.2626ZM12.19 21.8039L16.942 19.0603V24.5499L12.19 27.2936V21.8039V21.8039ZM15.6502 2.06839C13.4965 -0.0852966 10.0043 -0.0852966 7.85066 2.06839C5.69697 4.22208 5.69697 7.71426 7.85066 9.86802C10.0043 12.0217 13.4965 12.0217 15.6502 9.86802C17.8039 7.71434 17.8039 4.22208 15.6502 2.06839ZM0.927955 28.8134V34.3031C2.51277 35.2181 4.09531 36.1327 5.67998 37.0477V31.557L0.927955 28.8134ZM6.55889 37.0467C8.14326 36.1319 9.72647 35.2189 11.3109 34.304V28.8124C9.72625 29.7273 8.1437 30.642 6.55889 31.557V37.0467ZM12.1898 28.8124V34.304L16.9418 37.0467V31.557L12.1898 28.8124ZM17.8208 37.0476L22.5729 34.303V28.8134L17.8208 31.5569V37.0476ZM11.3109 27.2934L6.55889 24.5498V19.0601L11.3109 21.8037V27.2934ZM17.3814 25.3086L12.6263 28.0539L17.3814 30.7982L22.1355 28.0534L17.3814 25.3086ZM10.8744 28.0539C9.28906 28.9692 7.70491 29.8828 6.11936 30.7982L1.36521 28.0534L6.11936 25.3086L10.8744 28.0539Z" fill="#36454F"/>
</svg>
