<svg width="38" height="34" viewBox="0 0 38 34" fill="none" xmlns="http://www.w3.org/2000/svg">
<path d="M18.751 13.1348C22.2702 13.1348 25.123 10.2819 25.123 6.7627C25.123 3.2435 22.2702 0.390625 18.751 0.390625C15.2318 0.390625 12.3789 3.2435 12.3789 6.7627C12.3789 10.2819 15.2318 13.1348 18.751 13.1348Z" fill="#36454F"/>
<path d="M31.6416 13.1348C33.8664 13.1348 35.6699 11.3312 35.6699 9.10645C35.6699 6.88167 33.8664 5.07812 31.6416 5.07812C29.4168 5.07812 27.6133 6.88167 27.6133 9.10645C27.6133 11.3312 29.4168 13.1348 31.6416 13.1348Z" fill="#36454F"/>
<path d="M5.86035 13.1348C8.08513 13.1348 9.88867 11.3312 9.88867 9.10645C9.88867 6.88167 8.08513 5.07812 5.86035 5.07812C3.63557 5.07812 1.83203 6.88167 1.83203 9.10645C1.83203 11.3312 3.63557 13.1348 5.86035 13.1348Z" fill="#36454F"/>
<path d="M9.82837 16.7519C8.24268 15.4528 6.80662 15.6247 4.97314 15.6247C2.23096 15.6247 0 17.8425 0 20.5678V28.5666C0 29.7502 0.966065 30.7126 2.15405 30.7126C7.28291 30.7126 6.66504 30.8054 6.66504 30.4914C6.66504 24.8235 5.9937 20.6669 9.82837 16.7519Z" fill="#36454F"/>
<path d="M20.4941 15.6528C17.2916 15.3857 14.508 15.6559 12.1071 17.6377C8.08924 20.856 8.86246 25.1892 8.86246 30.4902C8.86246 31.8927 10.0036 33.0552 11.4274 33.0552C26.8875 33.0552 27.5028 33.5539 28.4196 31.5237C28.7202 30.8371 28.6378 31.0553 28.6378 24.4873C28.6378 19.2706 24.1208 15.6528 20.4941 15.6528ZM32.527 15.6235C30.6835 15.6235 29.2554 15.4533 27.6718 16.7507C31.4778 20.6367 30.8351 24.5096 30.8351 30.4902C30.8351 30.8062 30.3222 30.7114 35.2692 30.7114C36.4997 30.7114 37.5002 29.7146 37.5002 28.4893V20.5666C37.5002 17.8413 35.2692 15.6235 32.527 15.6235Z" fill="#36454F"/>
</svg>
