<svg width="18" height="18" viewBox="0 0 18 18" fill="none" xmlns="http://www.w3.org/2000/svg">
<path d="M4.36841 2H1.84209C1.37895 2 1 2.42632 1 2.9474V14.3158C1 14.8369 1.37895 15.2632 1.84209 15.2632H4.36841C4.83156 15.2632 5.2105 14.8369 5.2105 14.3158V2.9474C5.21054 2.42632 4.8316 2 4.36841 2ZM10.2632 2H7.73686C7.27372 2 6.89477 2.42632 6.89477 2.94735V14.3158C6.89477 14.8368 7.27372 15.2631 7.73686 15.2631H10.2632C10.7263 15.2632 11.1053 14.8369 11.1053 14.3158V2.9474C11.1053 2.42632 10.7263 2 10.2632 2ZM16.1579 2H13.6316C13.1684 2 12.7895 2.42632 12.7895 2.94735V14.3158C12.7895 14.8368 13.1684 15.2631 13.6316 15.2631H16.1579C16.6211 15.2631 17 14.8368 17 14.3158V2.94735C17 2.42632 16.6211 2 16.1579 2Z" fill="#36454F"/>
</svg>
    