<svg width="18" height="18" viewBox="0 0 18 18" fill="none" xmlns="http://www.w3.org/2000/svg">
<path d="M8.99986 16.7137C7.907 16.7137 7.07129 15.878 7.07129 14.7852C7.07129 13.6923 7.907 12.8566 8.99986 12.8566C10.0927 12.8566 10.9284 13.6923 10.9284 14.7852C10.9284 15.878 10.0927 16.7137 8.99986 16.7137ZM8.99986 10.928C7.907 10.928 7.07129 10.0923 7.07129 8.99944C7.07129 7.90659 7.907 7.07087 8.99986 7.07087C10.0927 7.07087 10.9284 7.90659 10.9284 8.99944C10.9284 10.0923 10.0927 10.928 8.99986 10.928ZM8.99986 5.1423C7.907 5.1423 7.07129 4.30659 7.07129 3.21373C7.07129 2.12087 7.907 1.28516 8.99986 1.28516C10.0927 1.28516 10.9284 2.12087 10.9284 3.21373C10.9284 4.30659 10.0927 5.1423 8.99986 5.1423Z" fill="#36454F"/>
</svg>
