<svg width="18" height="18" viewBox="0 0 18 18" fill="#36454F" xmlns="http://www.w3.org/2000/svg">
<path d="M16.3109 1H1.68935C1.56283 0.999738 1.43869 1.03443 1.33063 1.10024C1.22256 1.16605 1.13478 1.26043 1.07695 1.37297C1.01834 1.48707 0.992384 1.61513 1.00193 1.74305C1.01148 1.87096 1.05617 1.99375 1.13107 2.09788L6.48782 9.64403C6.48961 9.64666 6.49156 9.64907 6.49335 9.65169C6.68801 9.91449 6.79333 10.2328 6.79385 10.5598V16.7121C6.79329 16.8023 6.81056 16.8917 6.84465 16.9752C6.87875 17.0587 6.929 17.1346 6.99253 17.1986C7.05612 17.2626 7.13172 17.3134 7.21498 17.348C7.29824 17.3827 7.38753 17.4005 7.47772 17.4006C7.57032 17.4004 7.66197 17.3821 7.74746 17.3465L10.7576 16.1988C11.0272 16.1164 11.2062 15.8619 11.2062 15.5556V10.5598C11.2067 10.2328 11.312 9.91455 11.5065 9.65169C11.5083 9.64907 11.5102 9.64666 11.512 9.64403L16.8689 2.09772C16.9438 1.99366 16.9885 1.87092 16.9981 1.74307C17.0076 1.61522 16.9817 1.48721 16.9231 1.37318C16.8653 1.2606 16.7776 1.16617 16.6695 1.10032C16.5615 1.03447 16.4374 0.99975 16.3109 1Z" fill="#36454F"/>
</svg>
