<svg width="30" height="30" viewBox="0 0 30 30" fill="none" xmlns="http://www.w3.org/2000/svg">
<path d="M23.4375 11.25H22.5V7.5C22.5 3.36363 19.1364 0 15 0C10.8636 0 7.5 3.36363 7.5 7.5V11.25H6.5625C5.01252 11.25 3.75 12.5111 3.75 14.0625V27.1875C3.75 28.7389 5.01252 30 6.5625 30H23.4375C24.9875 30 26.25 28.7389 26.25 27.1875V14.0625C26.25 12.5111 24.9875 11.25 23.4375 11.25ZM10.0001 7.5C10.0001 4.7424 12.2425 2.50008 15 2.50008C17.7575 2.50008 19.9999 4.74246 19.9999 7.5V11.25H10.0001V7.5Z" fill="#16325B"/>
</svg>
