<svg width="19" height="18" viewBox="0 0 19 18" fill="none" xmlns="http://www.w3.org/2000/svg">
<path d="M12.3886 0H3.06009C2.80038 0 2.58984 0.210536 2.58984 0.619071V17.6786C2.58984 17.7895 2.80038 18 3.06009 18H15.941C16.2007 18 16.4113 17.7895 16.4113 17.6786V4.1715C16.4113 3.94779 16.3814 3.87579 16.3287 3.82275L12.5885 0.0826071C12.5354 0.0297881 12.4635 9.82923e-05 12.3886 0Z" fill="#E9E9E0"/>
<path d="M12.5547 0.046875V3.85548H16.3633L12.5547 0.046875Z" fill="#D9D7CA"/>
<path d="M6.77292 10.7096C6.66106 10.7096 6.5537 10.6733 6.46209 10.6048C6.12749 10.3538 6.08249 10.0745 6.1037 9.88418C6.1622 9.36089 6.80924 8.81318 8.02745 8.25518C8.51088 7.19575 8.97084 5.89043 9.24502 4.79982C8.92424 4.10168 8.61245 3.19589 8.8397 2.66457C8.91942 2.47846 9.01874 2.33575 9.2042 2.27404C9.31082 2.2442 9.42028 2.22567 9.53077 2.21875C9.69277 2.21875 9.83517 2.42736 9.93609 2.55593C10.0309 2.67679 10.246 2.93296 9.8162 4.74229C10.2495 5.63714 10.8634 6.54871 11.4516 7.17293C11.873 7.09675 12.2356 7.05786 12.531 7.05786C13.0343 7.05786 13.3394 7.17518 13.4638 7.41689C13.5666 7.61682 13.5245 7.8505 13.3384 8.11118C13.1594 8.36157 12.9125 8.494 12.6248 8.494C12.234 8.494 11.7788 8.24714 11.2713 7.75954C10.3594 7.95014 9.29452 8.29021 8.43374 8.66661C8.16502 9.23682 7.90756 9.69614 7.66777 10.033C7.33831 10.4943 7.05417 10.7096 6.77292 10.7096ZM7.62856 9.06196C6.94167 9.448 6.6617 9.76525 6.64145 9.94396C6.63824 9.97354 6.62956 10.0513 6.77999 10.1664C6.82788 10.1513 7.10752 10.0237 7.62856 9.06196ZM12.0119 7.63418C12.2738 7.83571 12.3378 7.93761 12.5091 7.93761C12.5843 7.93761 12.7987 7.93439 12.8981 7.79586C12.946 7.72868 12.9646 7.68561 12.972 7.66246C12.9325 7.64157 12.8801 7.59914 12.5943 7.59914C12.432 7.59946 12.2279 7.60654 12.0119 7.63418ZM9.61081 5.51854C9.37017 6.34446 9.08322 7.15617 8.75131 7.94982C9.43175 7.68621 10.1294 7.46928 10.8393 7.30054C10.4054 6.79654 9.97177 6.16718 9.61081 5.51854ZM9.4157 2.79861C9.3842 2.80921 8.9882 3.36336 9.44656 3.83232C9.75159 3.1525 9.42952 2.79411 9.4157 2.79861ZM15.941 17.9983H3.06009C2.93538 17.9983 2.81577 17.9488 2.72758 17.8606C2.63939 17.7724 2.58984 17.6528 2.58984 17.5281V12.534H16.4113V17.5281C16.4113 17.7878 16.2007 17.9983 15.941 17.9983Z" fill="#EC2121"/>
<path d="M6.08996 17.0356H5.5625V13.7969H6.494C6.63157 13.7969 6.76786 13.8187 6.90254 13.8628C7.03721 13.9068 7.15807 13.9727 7.26511 14.0604C7.37214 14.1482 7.45861 14.2546 7.5245 14.379C7.59039 14.5034 7.6235 14.6432 7.6235 14.7988C7.6235 14.963 7.59554 15.1115 7.53993 15.2449C7.4881 15.3729 7.40851 15.4877 7.30689 15.5811C7.20725 15.6718 7.08704 15.7422 6.94657 15.792C6.80611 15.8418 6.65054 15.8666 6.48082 15.8666H6.08964L6.08996 17.0356ZM6.08996 14.1967V15.4799H6.57339C6.63768 15.4799 6.70132 15.4689 6.76464 15.4468C6.82764 15.4249 6.8855 15.3889 6.93821 15.3391C6.99093 15.2893 7.03336 15.2198 7.0655 15.1305C7.09764 15.0411 7.11371 14.9306 7.11371 14.7988C7.11371 14.7461 7.10632 14.685 7.09186 14.6165C7.07593 14.5451 7.04528 14.4778 7.00186 14.4188C6.95145 14.3518 6.88592 14.2976 6.81061 14.2607C6.72864 14.2183 6.62 14.1971 6.48532 14.1971L6.08996 14.1967ZM10.858 15.3262C10.858 15.5927 10.8294 15.8206 10.7722 16.0096C10.715 16.1986 10.6427 16.3567 10.5546 16.4843C10.4665 16.6119 10.3679 16.7122 10.2579 16.7855C10.148 16.8588 10.0419 16.9134 9.93939 16.9504C9.84852 16.9842 9.7542 17.0078 9.65814 17.0208C9.57329 17.0304 9.51029 17.0356 9.46914 17.0356H8.24321V13.7969H9.21875C9.49132 13.7969 9.73079 13.8403 9.93714 13.9264C10.1435 14.0126 10.3151 14.1279 10.4514 14.2713C10.5877 14.4147 10.6893 14.5783 10.7568 14.7612C10.8243 14.9444 10.858 15.1327 10.858 15.3262ZM9.29364 16.6489C9.65107 16.6489 9.90886 16.5348 10.067 16.3063C10.2251 16.0777 10.3042 15.7467 10.3042 15.3131C10.3042 15.1784 10.2881 15.045 10.256 14.9132C10.2235 14.7814 10.1615 14.6622 10.0693 14.5551C9.977 14.4481 9.85164 14.3616 9.6935 14.2957C9.53536 14.2298 9.33029 14.1967 9.07829 14.1967H8.77068V16.6489H9.29364ZM12.1589 14.1967V15.2163H13.5124V15.5766H12.1589V17.0356H11.6227V13.7969H13.6484V14.1967H12.1589Z" fill="white"/>
</svg>
