<svg width="18" height="19" viewBox="0 0 18 19" fill="none" xmlns="http://www.w3.org/2000/svg">
<path d="M10.845 2.69812L11.505 2.03812C12.285 1.25813 13.6425 1.25813 14.4225 2.03812L14.955 2.57062C15.1471 2.76111 15.2996 2.98776 15.4037 3.23749C15.5077 3.48722 15.5613 3.75508 15.5613 4.02562C15.5613 4.29617 15.5077 4.56403 15.4037 4.81376C15.2996 5.06349 15.1471 5.29014 14.955 5.48063L14.295 6.14062L10.845 2.69062V2.69812ZM10.05 3.49312L3.2175 10.3256C3 10.5431 2.865 10.8281 2.8425 11.1356L2.64 13.3331C2.6175 13.6106 2.715 13.8806 2.91 14.0831C3.09 14.2631 3.3225 14.3606 3.57 14.3606H3.6525L5.85 14.1581C6.1575 14.1281 6.4425 13.9931 6.66 13.7756L13.4925 6.94312L10.0425 3.49312H10.05ZM17.0625 16.7531C17.0625 16.4456 16.8075 16.1906 16.5 16.1906H1.5C1.1925 16.1906 0.9375 16.4456 0.9375 16.7531C0.9375 17.0606 1.1925 17.3156 1.5 17.3156H16.5C16.8075 17.3156 17.0625 17.0606 17.0625 16.7531Z" fill="#73D02A"/>
</svg>
