<svg width="20" height="20" viewBox="0 0 20 20" fill="none" xmlns="http://www.w3.org/2000/svg">
<g clip-path="url(#clip0_10_39968)">
<path fill-rule="evenodd" clip-rule="evenodd" d="M10.0189 0.832031C7.58361 0.834531 5.24868 1.80286 3.52634 3.52461C1.804 5.24636 0.834878 7.58095 0.831543 10.0163C0.835707 12.4517 1.805 14.7861 3.52707 16.5082C5.24914 18.2302 7.58357 19.1995 10.0189 19.2037C12.4537 19.1995 14.7875 18.23 16.5086 16.5078C18.2297 14.7855 19.1975 12.4511 19.2 10.0163C19.1975 7.58124 18.2291 5.24664 16.5073 3.5248C14.7854 1.80296 12.454 0.834533 10.0189 0.832031ZM10.0063 5.83046C10.1181 5.82917 10.2289 5.85034 10.3323 5.8927C10.4358 5.93506 10.5296 5.99775 10.6083 6.07706C10.687 6.15637 10.749 6.25068 10.7906 6.3544C10.8322 6.45811 10.8526 6.56913 10.8504 6.68085V9.18164H13.3512C13.5726 9.18164 13.7849 9.26957 13.9414 9.4261C14.0979 9.58263 14.1859 9.79492 14.1859 10.0163C14.1859 10.2376 14.0979 10.4499 13.9414 10.6065C13.7849 10.763 13.5726 10.8509 13.3512 10.8509H10.8504V13.3517C10.8504 13.5731 10.7625 13.7854 10.606 13.9419C10.4495 14.0984 10.2372 14.1864 10.0158 14.1864C9.79443 14.1864 9.58214 14.0984 9.42561 13.9419C9.26908 13.7854 9.18115 13.5731 9.18115 13.3517V10.8541H6.67721C6.45962 10.8587 6.24876 10.7785 6.08928 10.6304C5.9298 10.4823 5.83421 10.2779 5.82275 10.0606C5.81129 9.84325 5.88486 9.62998 6.02788 9.46593C6.1709 9.30187 6.37215 9.19992 6.58902 9.18164C6.6184 9.18008 6.64784 9.18008 6.67721 9.18164H9.17485V6.68085C9.17276 6.57045 9.1926 6.46074 9.23322 6.35806C9.27384 6.25539 9.33442 6.16179 9.41146 6.0827C9.48851 6.0036 9.58048 5.94058 9.68205 5.89728C9.78363 5.85398 9.89593 5.83127 10.0063 5.83046Z" fill="#36454F"/>
</g>
<defs>
<clipPath id="clip0_10_39968">
<rect width="20" height="20" fill="white"/>
</clipPath>
</defs>
</svg>
