<svg width="18" height="18" viewBox="0 0 18 18" fill="none" xmlns="http://www.w3.org/2000/svg">
<g clip-path="url(#clip0_1363_4739)">
<path d="M14.8516 3.48047V2.63672C14.8516 1.18283 13.6687 0 12.2148 0H5.74609C4.29221 0 3.10938 1.18283 3.10938 2.63672V3.48047H14.8516ZM4.16406 11.2148V16.9453C4.16406 17.5278 4.63625 18 5.21875 18H12.7422C13.3247 18 13.7969 17.5278 13.7969 16.9453V11.2148H4.16406ZM10.3867 15.7148H7.57422C7.28298 15.7148 7.04688 15.4787 7.04688 15.1875C7.04688 14.8963 7.28298 14.6602 7.57422 14.6602H10.3867C10.678 14.6602 10.9141 14.8963 10.9141 15.1875C10.9141 15.4787 10.678 15.7148 10.3867 15.7148ZM10.3867 13.4648H7.57422C7.28298 13.4648 7.04688 13.2287 7.04688 12.9375C7.04688 12.6463 7.28298 12.4102 7.57422 12.4102H10.3867C10.678 12.4102 10.9141 12.6463 10.9141 12.9375C10.9141 13.2287 10.678 13.4648 10.3867 13.4648Z" fill="#36454F"/>
<path d="M15.3438 4.53125H2.65234C1.19846 4.53125 0.015625 5.71408 0.015625 7.16797V11.3867C0.015625 12.8406 1.19846 14.0234 2.65234 14.0234H3.10938V11.2109H2.79297C2.50173 11.2109 2.26562 10.9748 2.26562 10.6836C2.26562 10.3924 2.50173 10.1562 2.79297 10.1562H15.168C15.4592 10.1562 15.6953 10.3924 15.6953 10.6836C15.6953 10.9748 15.4592 11.2109 15.168 11.2109H14.8516V14.0234H15.3438C16.7976 14.0234 17.9805 12.8406 17.9805 11.3867V7.16797C17.9805 5.71408 16.7976 4.53125 15.3438 4.53125ZM4.48047 7.83594H2.79297C2.50173 7.83594 2.26562 7.59983 2.26562 7.30859C2.26562 7.01736 2.50173 6.78125 2.79297 6.78125H4.48047C4.7717 6.78125 5.00781 7.01736 5.00781 7.30859C5.00781 7.59983 4.7717 7.83594 4.48047 7.83594Z" fill="#36454F"/>
</g>
<defs>
<clipPath id="clip0_1363_4739">
<rect width="18" height="18" fill="white"/>
</clipPath>
</defs>
</svg>
