<svg width="16" height="16" viewBox="0 0 16 16" fill="none" xmlns="http://www.w3.org/2000/svg">
<g clip-path="url(#clip0_10_58804)">
<path d="M4.41842 3.64195C4.18767 3.41102 3.81329 3.41102 3.58254 3.64195C2.72579 4.4987 2.3047 5.6922 2.42707 6.91664C2.4576 7.22167 2.71457 7.44905 3.01467 7.44905C3.03439 7.44905 3.05426 7.44805 3.07398 7.44608C3.39892 7.41358 3.63595 7.1237 3.60345 6.79898C3.51635 5.92883 3.81351 5.08273 4.41842 4.4778C4.64935 4.24708 4.64935 3.87267 4.41842 3.64195Z" fill="#727272"/>
<path d="M6.75863 0C3.03191 0 0 3.03191 0 6.75863C0 10.4853 3.03191 13.5173 6.75863 13.5173C10.4853 13.5173 13.5173 10.4853 13.5173 6.75863C13.5173 3.03191 10.4853 0 6.75863 0ZM6.75863 12.335C3.68375 12.335 1.18228 9.8335 1.18228 6.75863C1.18228 3.68375 3.68375 1.18228 6.75863 1.18228C9.83331 1.18228 12.335 3.68375 12.335 6.75863C12.335 9.8335 9.8335 12.335 6.75863 12.335Z" fill="#727272"/>
<path d="M15.8281 14.9922L11.5325 10.6966C11.3016 10.4657 10.9276 10.4657 10.6966 10.6966C10.4657 10.9274 10.4657 11.3018 10.6966 11.5325L14.9922 15.8281C15.047 15.8831 15.1122 15.9267 15.1839 15.9564C15.2556 15.9861 15.3325 16.0014 15.4102 16.0013C15.5615 16.0013 15.7126 15.9435 15.8281 15.8281C16.059 15.5973 16.059 15.223 15.8281 14.9922Z" fill="#727272"/>
</g>
<defs>
<clipPath id="clip0_10_58804">
<rect width="16" height="16" fill="white"/>
</clipPath>
</defs>
</svg>
