<svg width="24" height="24" viewBox="0 0 24 24" fill="none" xmlns="http://www.w3.org/2000/svg">
<path d="M18.75 5.99891H22.0575L18 1.94141V5.24891C18 5.44782 18.079 5.63858 18.2197 5.77924C18.3603 5.91989 18.5511 5.99891 18.75 5.99891Z" fill="white"/>
<path d="M18.75 7.5C18.1533 7.5 17.581 7.26295 17.159 6.84099C16.7371 6.41903 16.5 5.84674 16.5 5.25V1.5H8.25C7.65326 1.5 7.08097 1.73705 6.65901 2.15901C6.23705 2.58097 6 3.15326 6 3.75V9.15C7.66934 8.80858 9.40518 9.04577 10.9217 9.8225C12.4383 10.5992 13.6452 11.8692 14.3437 13.4234C15.0421 14.9775 15.1906 16.7232 14.7646 18.373C14.3386 20.0227 13.3636 21.4783 12 22.5H20.25C20.8467 22.5 21.419 22.2629 21.841 21.841C22.2629 21.419 22.5 20.8467 22.5 20.25V7.5H18.75ZM14.25 7.5H9.75C9.55109 7.5 9.36032 7.42098 9.21967 7.28033C9.07902 7.13968 9 6.94891 9 6.75C9 6.55109 9.07902 6.36032 9.21967 6.21967C9.36032 6.07902 9.55109 6 9.75 6H14.25C14.4489 6 14.6397 6.07902 14.7803 6.21967C14.921 6.36032 15 6.55109 15 6.75C15 6.94891 14.921 7.13968 14.7803 7.28033C14.6397 7.42098 14.4489 7.5 14.25 7.5ZM18.75 18.75H17.25C17.0511 18.75 16.8603 18.671 16.7197 18.5303C16.579 18.3897 16.5 18.1989 16.5 18C16.5 17.8011 16.579 17.6103 16.7197 17.4697C16.8603 17.329 17.0511 17.25 17.25 17.25H18.75C18.9489 17.25 19.1397 17.329 19.2803 17.4697C19.421 17.6103 19.5 17.8011 19.5 18C19.5 18.1989 19.421 18.3897 19.2803 18.5303C19.1397 18.671 18.9489 18.75 18.75 18.75ZM18.75 15H17.25C17.0511 15 16.8603 14.921 16.7197 14.7803C16.579 14.6397 16.5 14.4489 16.5 14.25C16.5 14.0511 16.579 13.8603 16.7197 13.7197C16.8603 13.579 17.0511 13.5 17.25 13.5H18.75C18.9489 13.5 19.1397 13.579 19.2803 13.7197C19.421 13.8603 19.5 14.0511 19.5 14.25C19.5 14.4489 19.421 14.6397 19.2803 14.7803C19.1397 14.921 18.9489 15 18.75 15ZM18.75 11.25H15.75C15.5511 11.25 15.3603 11.171 15.2197 11.0303C15.079 10.8897 15 10.6989 15 10.5C15 10.3011 15.079 10.1103 15.2197 9.96967C15.3603 9.82902 15.5511 9.75 15.75 9.75H18.75C18.9489 9.75 19.1397 9.82902 19.2803 9.96967C19.421 10.1103 19.5 10.3011 19.5 10.5C19.5 10.6989 19.421 10.8897 19.2803 11.0303C19.1397 11.171 18.9489 11.25 18.75 11.25Z" fill="white"/>
<path d="M7.5 10.5C6.31331 10.5 5.15328 10.8519 4.16658 11.5112C3.17989 12.1705 2.41085 13.1075 1.95673 14.2039C1.5026 15.3003 1.38378 16.5067 1.61529 17.6705C1.8468 18.8344 2.41825 19.9035 3.25736 20.7426C4.09648 21.5818 5.16558 22.1532 6.32946 22.3847C7.49335 22.6162 8.69975 22.4974 9.7961 22.0433C10.8925 21.5892 11.8295 20.8201 12.4888 19.8334C13.1481 18.8467 13.5 17.6867 13.5 16.5C13.5 14.9087 12.8679 13.3826 11.7426 12.2574C10.6174 11.1321 9.0913 10.5 7.5 10.5ZM6 14.25C6.14834 14.25 6.29334 14.294 6.41668 14.3764C6.54002 14.4588 6.63615 14.5759 6.69291 14.713C6.74968 14.85 6.76453 15.0008 6.73559 15.1463C6.70665 15.2918 6.63522 15.4254 6.53033 15.5303C6.42544 15.6352 6.29181 15.7067 6.14632 15.7356C6.00083 15.7645 5.85004 15.7497 5.71299 15.6929C5.57595 15.6361 5.45881 15.54 5.3764 15.4167C5.29399 15.2933 5.25 15.1483 5.25 15C5.25 14.8011 5.32902 14.6103 5.46967 14.4697C5.61033 14.329 5.80109 14.25 6 14.25ZM9 18.75C8.85167 18.75 8.70666 18.706 8.58332 18.6236C8.45999 18.5412 8.36386 18.4241 8.30709 18.287C8.25033 18.15 8.23548 17.9992 8.26441 17.8537C8.29335 17.7082 8.36478 17.5746 8.46967 17.4697C8.57456 17.3648 8.7082 17.2933 8.85369 17.2644C8.99917 17.2355 9.14997 17.2503 9.28702 17.3071C9.42406 17.3639 9.54119 17.46 9.6236 17.5833C9.70602 17.7067 9.75 17.8517 9.75 18C9.75 18.1989 9.67099 18.3897 9.53033 18.5303C9.38968 18.671 9.19892 18.75 9 18.75ZM9.5325 15.5325L6.5325 18.5325C6.46278 18.6028 6.37983 18.6586 6.28844 18.6967C6.19704 18.7347 6.09901 18.7543 6 18.7543C5.90099 18.7543 5.80296 18.7347 5.71157 18.6967C5.62018 18.6586 5.53723 18.6028 5.4675 18.5325C5.39721 18.4628 5.34141 18.3798 5.30333 18.2884C5.26526 18.197 5.24565 18.099 5.24565 18C5.24565 17.901 5.26526 17.803 5.30333 17.7116C5.34141 17.6202 5.39721 17.5372 5.4675 17.4675L8.4675 14.4675C8.60873 14.3263 8.80028 14.2469 9 14.2469C9.19973 14.2469 9.39127 14.3263 9.5325 14.4675C9.67373 14.6087 9.75307 14.8003 9.75307 15C9.75307 15.1997 9.67373 15.3913 9.5325 15.5325Z" fill="white"/>
</svg>
