<svg width="18" height="18" viewBox="0 0 18 18" fill="none" xmlns="http://www.w3.org/2000/svg">
<path d="M13.7812 3.9375H11.25V3.65625C11.25 2.88084 10.6192 2.25 9.84375 2.25H8.15625C7.38084 2.25 6.75 2.88084 6.75 3.65625V3.9375H4.21875C4.06957 3.9375 3.92649 3.99676 3.821 4.10225C3.71551 4.20774 3.65625 4.35082 3.65625 4.5V5.34375C3.65625 5.49293 3.71551 5.63601 3.821 5.7415C3.92649 5.84699 4.06957 5.90625 4.21875 5.90625H13.7812C13.9304 5.90625 14.0735 5.84699 14.179 5.7415C14.2845 5.63601 14.3438 5.49293 14.3438 5.34375V4.5C14.3438 4.35082 14.2845 4.20774 14.179 4.10225C14.0735 3.99676 13.9304 3.9375 13.7812 3.9375ZM7.875 3.65625C7.875 3.50128 8.00128 3.375 8.15625 3.375H9.84375C9.99872 3.375 10.125 3.50128 10.125 3.65625V3.9375H7.875V3.65625ZM13.5787 6.65297C13.526 6.59497 13.4618 6.54862 13.3901 6.5169C13.3184 6.48517 13.2409 6.46877 13.1625 6.46875H4.8375C4.75911 6.46879 4.6816 6.4852 4.60992 6.51694C4.53824 6.54867 4.47399 6.59504 4.42127 6.65305C4.36855 6.71106 4.32853 6.77945 4.30378 6.85383C4.27903 6.92821 4.27009 7.00693 4.27753 7.08497L4.96884 14.3097C5.04731 15.131 5.76984 15.7503 6.64959 15.7503H11.3504C12.2299 15.7503 12.9527 15.131 13.0312 14.3097L13.7225 7.08497C13.7299 7.00692 13.721 6.92817 13.6963 6.85378C13.6715 6.77938 13.6315 6.71098 13.5787 6.65297ZM7.68544 14.3426C7.67334 14.3432 7.66153 14.3438 7.64944 14.3438C7.50649 14.3436 7.36895 14.289 7.26479 14.1911C7.16062 14.0932 7.09763 13.9594 7.08863 13.8167L6.75112 8.47294C6.7418 8.32407 6.79196 8.17759 6.89058 8.06569C6.9892 7.95378 7.12821 7.8856 7.27706 7.87612C7.42586 7.86711 7.57217 7.91737 7.68401 8.01593C7.79585 8.11448 7.86411 8.25331 7.87388 8.40206L8.21137 13.7458C8.2207 13.8947 8.17054 14.0412 8.07192 14.1531C7.9733 14.265 7.8343 14.3332 7.68544 14.3426ZM10.9114 13.8167C10.9071 13.8907 10.8882 13.9631 10.8559 14.0298C10.8235 14.0964 10.7783 14.1561 10.7228 14.2052C10.6673 14.2544 10.6027 14.2921 10.5326 14.3161C10.4625 14.3402 10.3883 14.3502 10.3144 14.3455C10.2404 14.3409 10.1681 14.3216 10.1016 14.2889C10.0351 14.2562 9.97569 14.2107 9.92684 14.155C9.87798 14.0992 9.84062 14.0344 9.8169 13.9642C9.79318 13.894 9.78357 13.8198 9.78863 13.7458L10.1261 8.40206C10.1363 8.25373 10.2047 8.11545 10.3165 8.01744C10.4283 7.91943 10.5744 7.86967 10.7228 7.87903C10.8711 7.8884 11.0098 7.95613 11.1084 8.06742C11.207 8.17871 11.2575 8.32451 11.2489 8.47294L10.9114 13.8167Z" fill="#16325B"/>
</svg>
