<svg width="18" height="19" viewBox="0 0 18 19" fill="none" xmlns="http://www.w3.org/2000/svg">
<path d="M14.4211 3.98684H11.8158V3.69737C11.8158 2.89929 11.1665 2.25 10.3684 2.25H8.63158C7.8335 2.25 7.18421 2.89929 7.18421 3.69737V3.98684H4.57895C4.4254 3.98684 4.27814 4.04784 4.16957 4.15641C4.061 4.26499 4 4.41224 4 4.56579V5.43421C4 5.58776 4.061 5.73501 4.16957 5.84359C4.27814 5.95216 4.4254 6.01316 4.57895 6.01316H14.4211C14.5746 6.01316 14.7219 5.95216 14.8304 5.84359C14.939 5.73501 15 5.58776 15 5.43421V4.56579C15 4.41224 14.939 4.26499 14.8304 4.15641C14.7219 4.04784 14.5746 3.98684 14.4211 3.98684ZM8.34211 3.69737C8.34211 3.53787 8.47208 3.40789 8.63158 3.40789H10.3684C10.5279 3.40789 10.6579 3.53787 10.6579 3.69737V3.98684H8.34211V3.69737ZM14.2126 6.78171C14.1584 6.72201 14.0922 6.67431 14.0184 6.64166C13.9447 6.60901 13.8649 6.59213 13.7842 6.59211H5.21579C5.13511 6.59214 5.05533 6.60904 4.98155 6.6417C4.90778 6.67437 4.84165 6.72208 4.78739 6.78179C4.73313 6.8415 4.69194 6.91189 4.66646 6.98844C4.64099 7.065 4.63179 7.14603 4.63945 7.22634L5.35097 14.6623C5.43174 15.5076 6.17539 16.145 7.08087 16.145H11.9191C12.8243 16.145 13.5683 15.5076 13.649 14.6623L14.3606 7.22634C14.3682 7.14601 14.3591 7.06496 14.3336 6.98839C14.3081 6.91182 14.2669 6.84142 14.2126 6.78171ZM8.147 14.6962C8.13455 14.6968 8.12239 14.6974 8.10995 14.6974C7.96282 14.6972 7.82126 14.6411 7.71405 14.5403C7.60683 14.4395 7.54201 14.3017 7.53274 14.1549L7.18537 8.6549C7.17578 8.50168 7.2274 8.35091 7.3289 8.23573C7.4304 8.12056 7.57347 8.05038 7.72668 8.04063C7.87983 8.03135 8.03042 8.08308 8.14553 8.18452C8.26064 8.28596 8.3309 8.42885 8.34095 8.58195L8.68832 14.0819C8.69791 14.2352 8.64628 14.3859 8.54478 14.5011C8.44328 14.6163 8.30021 14.6865 8.147 14.6962ZM11.4673 14.1549C11.4629 14.231 11.4434 14.3056 11.4101 14.3742C11.3768 14.4428 11.3303 14.5042 11.2732 14.5548C11.2161 14.6054 11.1496 14.6442 11.0774 14.669C11.0053 14.6937 10.9289 14.704 10.8528 14.6992C10.7767 14.6944 10.7023 14.6746 10.6338 14.641C10.5653 14.6073 10.5042 14.5604 10.4539 14.5031C10.4037 14.4457 10.3652 14.379 10.3408 14.3067C10.3164 14.2344 10.3065 14.1581 10.3117 14.0819L10.6591 8.58195C10.6695 8.42928 10.7399 8.28695 10.855 8.18608C10.9701 8.0852 11.1204 8.03399 11.2731 8.04363C11.4258 8.05327 11.5685 8.12298 11.67 8.23752C11.7715 8.35207 11.8235 8.50213 11.8146 8.6549L11.4673 14.1549Z" fill="#F44747"/>
</svg>
