<svg width="19" height="18" viewBox="0 0 19 18" fill="none" xmlns="http://www.w3.org/2000/svg">
<path fill-rule="evenodd" clip-rule="evenodd" d="M5.10821 0H11.1323L16.2301 5.32117V15.6547C16.2301 16.9489 15.1856 18 13.8914 18H5.10821C3.82062 18 2.76953 16.9489 2.76953 15.6547V2.33868C2.76951 1.05109 3.82062 0 5.10821 0Z" fill="#00733B"/>
<path fill-rule="evenodd" clip-rule="evenodd" d="M11.125 0V5.27518H16.2294L11.125 0Z" fill="black"/>
<path d="M8.36759 13.1091H7.49388L6.89608 12.104L6.29826 13.1091H5.41797L6.45593 11.3616L5.54281 9.84408H6.42307L6.89606 10.6324L7.36247 9.84408H8.24276L7.33618 11.3682L8.36759 13.1091ZM8.67635 13.1091V9.84408H9.51065V12.3995H10.9296V13.109H8.67635V13.1091ZM12.3092 13.1485C11.9807 13.1485 11.6917 13.0434 11.4421 12.8397C11.199 12.6426 11.061 12.393 11.0413 12.0974L11.7574 11.8872C11.7771 12.0448 11.8428 12.1828 11.9545 12.2879C12.0727 12.393 12.2041 12.4456 12.3486 12.4456C12.4669 12.4456 12.5654 12.4193 12.6442 12.3667C12.7165 12.3142 12.7559 12.2419 12.7559 12.1565C12.7559 12.0843 12.7231 12.0251 12.6639 11.9726C12.6048 11.9266 12.526 11.8872 12.434 11.8543C12.342 11.8215 12.2304 11.7886 12.1187 11.7624C12.0004 11.7295 11.8822 11.6901 11.7705 11.6375C11.6523 11.5916 11.5471 11.5324 11.4552 11.4602C11.3566 11.3945 11.2844 11.2959 11.2252 11.1711C11.1661 11.0529 11.1333 10.9083 11.1333 10.7441C11.1333 10.4748 11.2449 10.2514 11.4749 10.074C11.7048 9.89009 11.9807 9.80469 12.3026 9.80469C12.6245 9.80469 12.907 9.88351 13.1435 10.0346C13.38 10.1923 13.5311 10.3959 13.5902 10.6456L12.8413 10.9609C12.8085 10.8229 12.7427 10.7113 12.6508 10.6259C12.5588 10.547 12.4406 10.5011 12.3026 10.5011C12.1975 10.5011 12.1187 10.5273 12.053 10.5668C11.9938 10.6062 11.9676 10.6653 11.9676 10.7376C11.9676 10.8033 12.007 10.8624 12.0858 10.9084C12.1646 10.9478 12.2698 10.9806 12.388 11.0003C12.5062 11.02 12.6376 11.0529 12.7756 11.0989C12.9201 11.1514 13.0449 11.204 13.1697 11.2762C13.288 11.342 13.3865 11.4536 13.4654 11.5982C13.5508 11.7493 13.5902 11.9266 13.5902 12.1303C13.5902 12.4325 13.4719 12.6821 13.2354 12.866C12.9989 13.0499 12.6902 13.1485 12.3092 13.1485Z" fill="white"/>
</svg>
